<svg id="Expnaded" xmlns="http://www.w3.org/2000/svg" viewBox="0 0 96 96"><path d="M49.81,94H46.19A3.39,3.39,0,0,1,43,91.57a29.5,29.5,0,0,0-5.58-10.11,24.46,24.46,0,0,0-10.76-7.39,1,1,0,0,1-.53-1.48,35.73,35.73,0,0,0,5.39-19.28A35.67,35.67,0,0,0,26.16,34.7a1,1,0,0,1,0-1l5.24-10.12a7.75,7.75,0,0,0,.84-3.53V6.23A4.05,4.05,0,0,1,36,2a4.06,4.06,0,0,1,3.84,4.23V9.58C39.88,14.75,43.52,19,48,19s8.12-4.21,8.12-9.38V6.23a3.86,3.86,0,1,1,7.68,0V20.06a7.75,7.75,0,0,0,.84,3.53l5.24,10.12a1,1,0,0,1,0,1,36,36,0,0,0,0,37.89,1,1,0,0,1-.53,1.48,24.46,24.46,0,0,0-10.76,7.39A29.5,29.5,0,0,0,53,91.57,3.39,3.39,0,0,1,49.81,94ZM28.5,72.6A26.59,26.59,0,0,1,39,80.16a31.45,31.45,0,0,1,6,10.8,1.39,1.39,0,0,0,1.25,1h3.62a1.39,1.39,0,0,0,1.25-1,31.45,31.45,0,0,1,6-10.8A26.59,26.59,0,0,1,67.5,72.6a38.07,38.07,0,0,1,.34-38.48l-5-9.61a9.71,9.71,0,0,1-1.07-4.45V6.23a1.87,1.87,0,1,0-3.68,0V9.58C58.12,15.85,53.58,21,48,21S37.88,15.85,37.88,9.58V6.23A2.07,2.07,0,0,0,36,4,2.07,2.07,0,0,0,34.2,6.23V20.06a9.71,9.71,0,0,1-1.07,4.45l-5,9.61a37.79,37.79,0,0,1,5.39,19.17A38,38,0,0,1,28.5,72.6Z"/><path d="M63.88,49H32.12a1,1,0,1,1,0-2H63.88a1,1,0,0,1,0,2Z"/><path d="M63.45,54.42H32.55a1,1,0,1,1,0-2h30.9a1,1,0,0,1,0,2Z"/></svg>