<?xml version='1.0' encoding='iso-8859-1'?>
<svg version="1.1" xmlns="http://www.w3.org/2000/svg" viewBox="0 0 64.15 64.15" xmlns:xlink="http://www.w3.org/1999/xlink" enable-background="new 0 0 64.15 64.15">
  <g>
    <g>
      <path d="m51.387,2.313c-1.342-1.068-4.054-2.129-6.522-2.129h-4.127c0,0 0.134,8.582-8.65,8.582 0,0-8.651-0.53-8.518-8.582 0,0-3.097-0.078-4.125,0-1.741,0.131-4.662,0.709-6.654,2.129-2.896,2.065-12.791,6.23-12.791,6.23l6,15.939 7.057-.873-2.306,38.698 40.636,1.693v-40.392l6.196,.458 6.567-15.479c0,0-9.983-4.058-12.763-6.274zm4.957,18.594l-10.009-2.808 2.804,40.498-36.263,1.737 7.124-42.102-9.937,2.792-7.646-11.792c-0.913,0.149 6.068-1.189 11.207-3.095 4.46-1.654 5.268-1.512 5.268-1.512s3.044,6.699 11.815,6.755c9.719,0.067 11.168-7.321 11.168-7.321 4.688,0.125 5.415,0.926 7.042,1.625 2.183,0.937 9.333,2.416 9.333,2.416l-1.906,12.807z"/>
    </g>
  </g>
</svg>
