<?xml version="1.0" encoding="utf-8"?>
<!-- Generator: Adobe Illustrator 16.0.0, SVG Export Plug-In . SVG Version: 6.00 Build 0)  -->
<!DOCTYPE svg PUBLIC "-//W3C//DTD SVG 1.1//EN" "http://www.w3.org/Graphics/SVG/1.1/DTD/svg11.dtd">
<svg version="1.1" id="Layer_1" xmlns="http://www.w3.org/2000/svg" xmlns:xlink="http://www.w3.org/1999/xlink" x="0px" y="0px"
	 width="64px" height="64px" viewBox="0 0 64 64" enable-background="new 0 0 64 64" xml:space="preserve">
<g id="Skirt">
	<g>
		
			<path fill="none" stroke="#494949" stroke-width="1.5" stroke-linecap="round" stroke-linejoin="round" stroke-miterlimit="10" d="
			M22.529,12.643c0,0,8.19,5.729,19.965,0c0,0,4.613,4.218,6.046,12.89c0,0,2.387,14.557,8.592,16.148c0,0-4.853,5.487-10.181,5.248
			c0,0-0.463,0.85,0.039,1.514c0,0-4.02,0.716-5.609,2.388c0,0-3.501,1.43-4.933,0c0,0-2.944-0.317-4.374,0.635
			c0,0-2.864,0.876-6.842,0c0,0-4.548-4.335-8.284-3.381c0,0,0.567-0.117,0.887-1.313c0,0-7.173-0.836-11.07-5.371
			c0,0,7.185-6.467,9.322-14.325C16.087,27.073,19.775,15.102,22.529,12.643L22.529,12.643z"/>
		
			<path fill="none" stroke="#494949" stroke-width="1.5" stroke-linecap="round" stroke-linejoin="round" stroke-miterlimit="10" d="
			M27.289,14.608c2.57,0.641,6.077,0.945,10.236-0.121l0,0c0,0,1.588,25.07,9.465,32.283l-0.039,0.158c0,0-0.463,0.852,0.039,1.516
			c0,0-4.02,0.715-5.609,2.387c0,0-3.501,1.43-4.933,0c0,0-2.944-0.318-4.374,0.635c0,0-2.864,0.876-6.842,0
			c0,0-4.548-4.335-8.284-3.381c0,0,0.567-0.117,0.887-1.313c8.123-12.953,9.458-32.163,9.458-32.163L27.289,14.608L27.289,14.608z"
			/>
		
			<path fill="none" stroke="#494949" stroke-width="1.5" stroke-linecap="round" stroke-linejoin="round" stroke-miterlimit="10" d="
			M27.293,14.608c0,0-1.335,19.21-9.458,32.162c0,0-7.173-0.836-11.07-5.371c0,0,7.185-6.467,9.322-14.325
			c0,0,3.688-11.972,6.442-14.431l0,0c0,0,1.735,1.217,4.76,1.966H27.293z"/>
		
			<path fill="none" stroke="#494949" stroke-width="1.5" stroke-linecap="round" stroke-linejoin="round" stroke-miterlimit="10" d="
			M37.525,14.487c0,0,1.588,25.07,9.465,32.283l-0.039,0.158c5.328,0.24,10.181-5.248,10.181-5.248
			c-6.205-1.592-8.592-16.147-8.592-16.147c-1.433-8.672-6.046-12.89-6.046-12.89C40.756,13.49,39.094,14.087,37.525,14.487"/>
	</g>
</g>
</svg>
