<?xml version="1.0" encoding="utf-8"?>
<!-- Generator: Adobe Illustrator 16.0.0, SVG Export Plug-In . SVG Version: 6.00 Build 0)  -->
<!DOCTYPE svg PUBLIC "-//W3C//DTD SVG 1.1//EN" "http://www.w3.org/Graphics/SVG/1.1/DTD/svg11.dtd">
<svg version="1.1" id="Layer_1" xmlns="http://www.w3.org/2000/svg" xmlns:xlink="http://www.w3.org/1999/xlink" x="0px" y="0px"
	 width="64px" height="64px" viewBox="0 0 64 64" enable-background="new 0 0 64 64" xml:space="preserve">
<g id="Track_Pant">
	<g id="_x34_42">
		
			<path fill="none" stroke="#494949" stroke-width="1.5" stroke-linecap="round" stroke-linejoin="round" stroke-miterlimit="10" d="
			M32.596,20.135c0.053,0.081,0.227,0.343,0.279,0.435c4.158,6.96,5.904,35.379,5.904,35.379c3.861,0.135,6.617-0.484,6.617-0.484
			L43.26,28.994L41.537,9.486l0.049-1.922c0,0-2.734,1.302-8.871,1.439h-0.33c-6.137-0.137-8.838-1.439-8.838-1.439l0.014,1.922
			l-1.724,19.508L19.7,55.465c0,0,2.756,0.62,6.618,0.484c0,0,1.745-28.419,5.901-35.379c0.054-0.092,0.227-0.354,0.282-0.435
			H32.596z"/>
	</g>
</g>
</svg>
